<?xml version="1.0" encoding="UTF-8" standalone="no"?>
<!-- Generator: Adobe Illustrator 19.0.0, SVG Export Plug-In . SVG Version: 6.00 Build 0)  -->

<svg
   xmlns:dc="http://purl.org/dc/elements/1.1/"
   xmlns:cc="http://creativecommons.org/ns#"
   xmlns:rdf="http://www.w3.org/1999/02/22-rdf-syntax-ns#"
   xmlns:svg="http://www.w3.org/2000/svg"
   xmlns="http://www.w3.org/2000/svg"
   xmlns:sodipodi="http://sodipodi.sourceforge.net/DTD/sodipodi-0.dtd"
   xmlns:inkscape="http://www.inkscape.org/namespaces/inkscape"
   version="1.1"
   id="Capa_1"
   x="0px"
   y="0px"
   viewBox="0 0 512.171 512.171"
   style="enable-background:new 0 0 512.171 512.171;"
   xml:space="preserve"
   inkscape:version="0.91 r13725"
   sodipodi:docname="shift_on.svg"><metadata
     id="metadata43"><rdf:RDF><cc:Work
         rdf:about=""><dc:format>image/svg+xml</dc:format><dc:type
           rdf:resource="http://purl.org/dc/dcmitype/StillImage" /><dc:title></dc:title></cc:Work></rdf:RDF></metadata><defs
     id="defs41" /><sodipodi:namedview
     pagecolor="#ffffff"
     bordercolor="#666666"
     borderopacity="1"
     objecttolerance="10"
     gridtolerance="10"
     guidetolerance="10"
     inkscape:pageopacity="0"
     inkscape:pageshadow="2"
     inkscape:window-width="1278"
     inkscape:window-height="632"
     id="namedview39"
     showgrid="false"
     inkscape:zoom="0.46078359"
     inkscape:cx="-32.553243"
     inkscape:cy="256.08551"
     inkscape:window-x="19"
     inkscape:window-y="46"
     inkscape:window-maximized="0"
     inkscape:current-layer="Capa_1" /><g
     id="g3"
     transform="matrix(0.57198761,0,0,-0.49983209,109.60797,392.80962)"><g
       id="g5"><path
         d="m 479.046,283.925 c -1.664,-3.989 -5.547,-6.592 -9.856,-6.592 l -116.885,0 0,-266.666 C 352.305,4.779 347.526,0 341.638,0 L 170.971,0 c -5.888,0 -10.667,4.779 -10.667,10.667 l 0,266.667 -117.333,0 c -4.309,0 -8.192,2.603 -9.856,6.571 -1.643,3.989 -0.747,8.576 2.304,11.627 l 212.8,213.504 c 2.005,2.005 4.715,3.136 7.552,3.136 2.837,0 5.547,-1.131 7.552,-3.115 L 476.742,295.553 c 3.051,-3.052 3.968,-7.638 2.304,-11.628 z"
         id="path7"
         inkscape:connector-curvature="0" /></g></g><g
     id="g9" /><g
     id="g11" /><g
     id="g13" /><g
     id="g15" /><g
     id="g17" /><g
     id="g19" /><g
     id="g21" /><g
     id="g23" /><g
     id="g25" /><g
     id="g27" /><g
     id="g29" /><g
     id="g31" /><g
     id="g33" /><g
     id="g35" /><g
     id="g37" /></svg>